<svg xmlns="http://www.w3.org/2000/svg" xmlns:xlink="http://www.w3.org/1999/xlink" width="192" zoomAndPan="magnify" viewBox="0 0 144 143.999998" height="192" preserveAspectRatio="xMidYMid meet" version="1.0"><defs><g/><clipPath id="id1"><path d="M 89 33 L 96.535156 33 L 96.535156 41 L 89 41 Z M 89 33 " clip-rule="nonzero"/></clipPath><clipPath id="id2"><path d="M 47.574219 25.460938 L 96.535156 25.460938 L 96.535156 77.875 L 47.574219 77.875 Z M 47.574219 25.460938 " clip-rule="nonzero"/></clipPath></defs><rect x="-14.4" width="172.8" fill="#ffffff" y="-14.4" height="172.799997" fill-opacity="1"/><rect x="-14.4" width="172.8" fill="#ffffff" y="-14.4" height="172.799997" fill-opacity="1"/><rect x="-14.4" width="172.8" fill="#ffffff" y="-14.4" height="172.799997" fill-opacity="1"/><rect x="-14.4" width="172.8" fill="#ffffff" y="-14.4" height="172.799997" fill-opacity="1"/><g clip-path="url(#id1)"><path fill="#ffffff" d="M 96.222656 37.320312 L 91.824219 33.261719 C 91.433594 32.902344 90.824219 32.925781 90.464844 33.316406 L 89.300781 34.570312 C 88.941406 34.960938 88.960938 35.570312 89.351562 35.929688 L 93.75 39.988281 C 94.140625 40.347656 94.75 40.328125 95.109375 39.9375 L 96.273438 38.679688 C 96.632812 38.289062 96.609375 37.679688 96.21875 37.320312 Z M 96.222656 37.320312 " fill-opacity="1" fill-rule="evenodd"/></g><g clip-path="url(#id2)"><path fill="#00c2cb" d="M 96.351562 57.707031 C 97.023438 50.96875 94.691406 44.382812 89.898438 39.585938 C 86.414062 36.097656 81.894531 33.839844 77.003906 33.183594 L 76.574219 33.125 L 76.574219 28.847656 L 79.648438 28.847656 C 80.175781 28.847656 80.609375 28.414062 80.609375 27.886719 L 80.609375 26.417969 C 80.609375 25.890625 80.175781 25.460938 79.648438 25.460938 L 68.792969 25.460938 C 68.261719 25.460938 67.832031 25.890625 67.832031 26.417969 L 67.832031 27.886719 C 67.832031 28.414062 68.261719 28.847656 68.792969 28.847656 L 71.632812 28.847656 L 71.632812 33.09375 L 71.195312 33.144531 C 67.683594 33.582031 64.34375 34.828125 61.410156 36.808594 C 60.25 37.589844 59.996094 39.1875 60.855469 40.289062 C 61.664062 41.332031 63.1875 41.425781 64.25 40.726562 C 67.148438 38.808594 70.511719 37.804688 73.980469 37.804688 C 78.675781 37.804688 83.136719 39.660156 86.453125 42.972656 C 90.558594 47.070312 92.335938 52.800781 91.363281 58.507812 C 90.09375 65.910156 84.066406 71.761719 76.628906 72.851562 C 73.816406 73.265625 70.972656 73.027344 68.285156 72.101562 C 65.742188 71.234375 63.433594 69.792969 61.53125 67.898438 C 58.808594 65.183594 57.042969 61.675781 56.507812 57.871094 L 56.429688 57.308594 L 58.964844 57.308594 C 59.953125 57.308594 60.574219 56.234375 60.082031 55.382812 L 55.027344 46.644531 C 54.53125 45.789062 53.296875 45.789062 52.796875 46.644531 L 47.746094 55.382812 C 47.25 56.234375 47.875 57.308594 48.859375 57.308594 L 51.566406 57.308594 L 51.609375 57.753906 C 52.144531 62.882812 54.4375 67.652344 58.085938 71.296875 C 62.851562 76.046875 69.382812 78.390625 76.089844 77.777344 C 86.695312 76.808594 95.289062 68.296875 96.339844 57.707031 Z M 96.351562 57.707031 " fill-opacity="1" fill-rule="evenodd"/></g><path fill="#ffffff" d="M 74.523438 58.855469 C 74.457031 58.863281 74.390625 58.867188 74.324219 58.867188 C 73.660156 58.867188 73.027344 58.605469 72.558594 58.136719 C 72.042969 57.625 71.777344 56.90625 71.835938 56.175781 C 71.894531 55.449219 72.261719 54.78125 72.855469 54.347656 L 80.308594 48.964844 C 80.714844 48.671875 81.277344 48.722656 81.628906 49.074219 C 81.984375 49.425781 82.035156 49.988281 81.742188 50.394531 L 76.351562 57.832031 C 75.917969 58.425781 75.257812 58.800781 74.523438 58.855469 Z M 87.792969 47.644531 C 89.175781 50.054688 89.894531 52.765625 89.894531 55.542969 C 89.894531 58.324219 89.175781 61.035156 87.789062 63.449219 C 87.78125 63.476562 87.765625 63.507812 87.75 63.53125 C 87.734375 63.550781 87.71875 63.574219 87.699219 63.597656 C 86.3125 65.957031 84.335938 67.925781 81.972656 69.3125 C 81.945312 69.335938 81.914062 69.355469 81.882812 69.371094 C 81.859375 69.382812 81.839844 69.390625 81.8125 69.402344 C 79.441406 70.753906 76.78125 71.472656 74.054688 71.496094 C 74.035156 71.496094 74.015625 71.5 74 71.5 C 73.984375 71.5 73.972656 71.5 73.960938 71.5 C 73.941406 71.5 73.925781 71.5 73.90625 71.5 C 72.703125 71.5 71.492188 71.359375 70.320312 71.089844 C 69.769531 70.96875 69.421875 70.414062 69.550781 69.863281 C 69.679688 69.316406 70.230469 68.96875 70.78125 69.09375 C 71.503906 69.261719 72.238281 69.367188 72.976562 69.414062 L 72.976562 68.753906 C 72.976562 68.183594 73.433594 67.726562 74.003906 67.726562 C 74.574219 67.726562 75.027344 68.191406 75.027344 68.753906 L 75.027344 69.40625 C 76.746094 69.269531 78.417969 68.816406 79.96875 68.0625 L 79.640625 67.492188 C 79.355469 67.003906 79.523438 66.375 80.011719 66.09375 C 80.5 65.8125 81.132812 65.980469 81.417969 66.472656 L 81.742188 67.035156 C 83.183594 66.050781 84.4375 64.800781 85.425781 63.355469 L 84.855469 63.03125 C 84.367188 62.75 84.199219 62.125 84.476562 61.636719 C 84.757812 61.144531 85.390625 60.972656 85.882812 61.257812 L 86.453125 61.585938 C 87.214844 60.011719 87.671875 58.308594 87.800781 56.558594 L 87.140625 56.558594 C 86.574219 56.558594 86.113281 56.097656 86.113281 55.535156 C 86.113281 54.96875 86.574219 54.507812 87.140625 54.507812 L 87.800781 54.507812 C 87.671875 52.761719 87.214844 51.0625 86.453125 49.484375 L 85.878906 49.816406 L 85.875 49.824219 C 85.71875 49.90625 85.542969 49.953125 85.371094 49.953125 C 85.007812 49.953125 84.667969 49.757812 84.488281 49.441406 C 84.203125 48.953125 84.371094 48.324219 84.859375 48.039062 L 85.429688 47.714844 C 84.441406 46.273438 83.191406 45.019531 81.746094 44.035156 L 81.421875 44.605469 C 81.238281 44.917969 80.902344 45.113281 80.53125 45.113281 C 80.355469 45.113281 80.179688 45.070312 80.03125 44.984375 L 80.027344 44.980469 L 80.019531 44.976562 C 79.535156 44.691406 79.367188 44.066406 79.648438 43.578125 L 79.976562 43.007812 C 78.425781 42.257812 76.753906 41.800781 75.039062 41.667969 L 75.039062 42.320312 C 75.039062 42.882812 74.578125 43.34375 74.011719 43.34375 C 73.449219 43.34375 72.984375 42.882812 72.984375 42.320312 L 72.984375 41.660156 C 72.972656 41.660156 72.957031 41.667969 72.941406 41.667969 L 72.332031 41.714844 C 71.816406 41.777344 71.300781 41.863281 70.789062 41.976562 C 70.238281 42.105469 69.6875 41.757812 69.566406 41.210938 C 69.4375 40.660156 69.78125 40.109375 70.332031 39.980469 C 70.964844 39.832031 71.605469 39.726562 72.246094 39.664062 C 73.425781 39.550781 74.613281 39.550781 75.792969 39.6875 C 77.929688 39.929688 79.976562 40.613281 81.839844 41.679688 C 81.867188 41.6875 81.890625 41.703125 81.917969 41.71875 C 81.945312 41.734375 81.96875 41.75 81.988281 41.769531 C 82.65625 42.160156 83.296875 42.59375 83.894531 43.078125 L 83.902344 43.082031 C 85.292969 44.203125 86.464844 45.542969 87.441406 47.035156 L 87.445312 47.042969 C 87.539062 47.195312 87.632812 47.347656 87.722656 47.5 C 87.730469 47.511719 87.738281 47.523438 87.746094 47.53125 L 87.761719 47.554688 L 87.777344 47.582031 C 87.789062 47.605469 87.796875 47.625 87.800781 47.648438 Z M 74.363281 56.820312 C 74.496094 56.808594 74.617188 56.742188 74.691406 56.636719 L 76.335938 54.367188 L 74.0625 56.007812 C 73.953125 56.082031 73.886719 56.207031 73.878906 56.335938 C 73.871094 56.464844 73.917969 56.59375 74.011719 56.6875 C 74.105469 56.78125 74.234375 56.824219 74.367188 56.816406 Z M 74.363281 56.820312 " fill-opacity="1" fill-rule="evenodd"/><g fill="#f7f7f7" fill-opacity="1"><g transform="translate(43.668266, 99.769918)"><g><path d="M 5.757812 -8.542969 L 3.410156 -8.542969 L 3.410156 -14.371094 C 3.410156 -14.554688 3.300781 -14.664062 3.117188 -14.664062 L 1.226562 -14.664062 C 1.007812 -14.664062 0.917969 -14.554688 0.917969 -14.371094 L 0.917969 -0.292969 C 0.917969 -0.109375 1.007812 0 1.226562 0 L 3.117188 0 C 3.300781 0 3.410156 -0.109375 3.410156 -0.292969 L 3.410156 -6.121094 L 5.757812 -6.121094 L 5.757812 -0.292969 C 5.757812 -0.109375 5.867188 0 6.050781 0 L 7.9375 0 C 8.15625 0 8.25 -0.109375 8.25 -0.292969 L 8.25 -14.371094 C 8.25 -14.554688 8.15625 -14.664062 7.9375 -14.664062 L 6.050781 -14.664062 C 5.867188 -14.664062 5.757812 -14.554688 5.757812 -14.371094 Z M 5.757812 -8.542969 "/></g></g></g><g fill="#f7f7f7" fill-opacity="1"><g transform="translate(54.960866, 99.769918)"><g><path d="M 8.578125 -14.664062 C 8.359375 -14.664062 8.230469 -14.554688 8.175781 -14.335938 L 6.140625 -5.207031 L 4.105469 -14.335938 C 4.050781 -14.554688 3.921875 -14.664062 3.703125 -14.664062 L 1.285156 -14.664062 C 1.046875 -14.664062 0.917969 -14.539062 0.917969 -14.300781 L 0.917969 -0.367188 C 0.917969 -0.128906 1.046875 0 1.285156 0 L 2.96875 0 C 3.207031 0 3.335938 -0.128906 3.335938 -0.367188 L 3.335938 -8.617188 L 3.464844 -8.617188 L 5.28125 -0.328125 C 5.335938 -0.109375 5.464844 0 5.683594 0 L 6.582031 0 C 6.800781 0 6.929688 -0.109375 6.984375 -0.328125 L 8.800781 -8.617188 L 8.929688 -8.617188 L 8.929688 -0.367188 C 8.929688 -0.128906 9.054688 0 9.292969 0 L 11 0 C 11.238281 0 11.367188 -0.128906 11.367188 -0.367188 L 11.367188 -14.300781 C 11.367188 -14.539062 11.238281 -14.664062 11 -14.664062 Z M 8.578125 -14.664062 "/></g></g></g><g fill="#f7f7f7" fill-opacity="1"><g transform="translate(69.369888, 99.769918)"><g><path d="M 0.84375 -14.664062 C 0.660156 -14.664062 0.550781 -14.554688 0.550781 -14.371094 L 0.550781 -12.539062 C 0.550781 -12.355469 0.660156 -12.246094 0.84375 -12.246094 L 2.96875 -12.246094 L 2.96875 -0.292969 C 2.96875 -0.0898438 3.078125 0 3.261719 0 L 5.167969 0 C 5.371094 0 5.464844 -0.0898438 5.464844 -0.292969 L 5.464844 -12.246094 L 7.589844 -12.246094 C 7.792969 -12.246094 7.882812 -12.355469 7.882812 -12.539062 L 7.882812 -14.371094 C 7.882812 -14.554688 7.792969 -14.664062 7.589844 -14.664062 Z M 0.84375 -14.664062 "/></g></g></g><g fill="#f7f7f7" fill-opacity="1"><g transform="translate(79.92921, 99.769918)"><g><path d="M 1.210938 -14.664062 C 1.007812 -14.664062 0.917969 -14.554688 0.917969 -14.371094 L 0.917969 -0.292969 C 0.917969 -0.109375 1.007812 0 1.210938 0 L 3.117188 0 C 3.300781 0 3.410156 -0.109375 3.410156 -0.292969 L 3.410156 -14.371094 C 3.410156 -14.554688 3.300781 -14.664062 3.117188 -14.664062 Z M 1.210938 -14.664062 "/></g></g></g><g fill="#f7f7f7" fill-opacity="1"><g transform="translate(86.382182, 99.769918)"><g><path d="M 10.945312 -14.664062 C 10.722656 -14.664062 10.578125 -14.539062 10.558594 -14.316406 L 9.808594 -5.738281 L 9.714844 -5.738281 L 7.917969 -14.335938 C 7.863281 -14.554688 7.734375 -14.664062 7.515625 -14.664062 L 6.417969 -14.664062 C 6.195312 -14.664062 6.066406 -14.554688 6.011719 -14.335938 L 4.199219 -5.738281 L 4.105469 -5.738281 L 3.390625 -14.316406 C 3.375 -14.539062 3.226562 -14.664062 3.007812 -14.664062 L 1.265625 -14.664062 C 1.027344 -14.664062 0.898438 -14.519531 0.917969 -14.28125 L 2.417969 -0.347656 C 2.4375 -0.109375 2.566406 0 2.804688 0 L 4.636719 0 C 4.859375 0 4.988281 -0.109375 5.042969 -0.3125 L 6.964844 -8.617188 L 8.871094 -0.328125 C 8.929688 -0.109375 9.054688 0 9.277344 0 L 11.074219 0 C 11.3125 0 11.4375 -0.109375 11.457031 -0.347656 L 13.035156 -14.28125 C 13.050781 -14.519531 12.925781 -14.664062 12.6875 -14.664062 Z M 10.945312 -14.664062 "/></g></g></g><g fill="#f7f7f7" fill-opacity="1"><g transform="translate(73.060788, 125.373083)"><g/></g></g><g fill="#00c2cb" fill-opacity="1"><g transform="translate(59.14269, 111.7131)"><g><path d="M 3.078125 -2.265625 C 3.253906 -2.160156 3.382812 -2.023438 3.46875 -1.859375 C 3.5625 -1.703125 3.609375 -1.519531 3.609375 -1.3125 C 3.609375 -1.113281 3.5625 -0.925781 3.46875 -0.75 C 3.375 -0.582031 3.238281 -0.429688 3.0625 -0.296875 C 2.90625 -0.179688 2.726562 -0.0859375 2.53125 -0.015625 C 2.332031 0.046875 2.125 0.078125 1.90625 0.078125 C 1.675781 0.078125 1.457031 0.046875 1.25 -0.015625 C 1.050781 -0.078125 0.875 -0.171875 0.71875 -0.296875 C 0.488281 -0.472656 0.328125 -0.6875 0.234375 -0.9375 L 1.109375 -1.34375 C 1.109375 -1.300781 1.117188 -1.25 1.140625 -1.1875 C 1.171875 -1.125 1.21875 -1.0625 1.28125 -1 C 1.34375 -0.945312 1.421875 -0.898438 1.515625 -0.859375 C 1.617188 -0.816406 1.742188 -0.796875 1.890625 -0.796875 C 2.003906 -0.796875 2.101562 -0.804688 2.1875 -0.828125 C 2.28125 -0.859375 2.359375 -0.894531 2.421875 -0.9375 C 2.484375 -0.988281 2.53125 -1.039062 2.5625 -1.09375 C 2.59375 -1.144531 2.609375 -1.203125 2.609375 -1.265625 C 2.609375 -1.328125 2.582031 -1.382812 2.53125 -1.4375 C 2.488281 -1.5 2.425781 -1.546875 2.34375 -1.578125 C 2.175781 -1.640625 2 -1.6875 1.8125 -1.71875 C 1.632812 -1.757812 1.457031 -1.8125 1.28125 -1.875 C 1.101562 -1.9375 0.941406 -2.015625 0.796875 -2.109375 C 0.648438 -2.210938 0.535156 -2.351562 0.453125 -2.53125 C 0.367188 -2.6875 0.328125 -2.851562 0.328125 -3.03125 C 0.328125 -3.226562 0.375 -3.421875 0.46875 -3.609375 C 0.5625 -3.796875 0.6875 -3.953125 0.84375 -4.078125 C 1 -4.191406 1.171875 -4.28125 1.359375 -4.34375 C 1.546875 -4.414062 1.75 -4.453125 1.96875 -4.453125 C 2.175781 -4.453125 2.375 -4.421875 2.5625 -4.359375 C 2.757812 -4.296875 2.929688 -4.203125 3.078125 -4.078125 C 3.222656 -3.972656 3.34375 -3.84375 3.4375 -3.6875 L 2.734375 -3.21875 C 2.640625 -3.332031 2.523438 -3.425781 2.390625 -3.5 C 2.265625 -3.570312 2.125 -3.609375 1.96875 -3.609375 C 1.75 -3.609375 1.578125 -3.554688 1.453125 -3.453125 C 1.328125 -3.359375 1.265625 -3.226562 1.265625 -3.0625 C 1.265625 -2.988281 1.296875 -2.921875 1.359375 -2.859375 C 1.429688 -2.804688 1.519531 -2.753906 1.625 -2.703125 C 1.738281 -2.660156 1.863281 -2.625 2 -2.59375 C 2.132812 -2.5625 2.269531 -2.523438 2.40625 -2.484375 C 2.539062 -2.453125 2.664062 -2.414062 2.78125 -2.375 C 2.90625 -2.34375 3.003906 -2.304688 3.078125 -2.265625 Z M 3.078125 -2.265625 "/></g></g></g><g fill="#00c2cb" fill-opacity="1"><g transform="translate(63.533106, 111.7131)"><g><path d="M 0.296875 -4.390625 L 3.03125 -4.390625 L 3.03125 -3.53125 L 1.234375 -3.53125 L 1.234375 -2.734375 L 2.828125 -2.734375 L 2.828125 -1.890625 L 1.234375 -1.890625 L 1.234375 -0.84375 L 3.03125 -0.84375 L 3.03125 0 L 0.296875 0 Z M 0.296875 -4.390625 "/></g></g></g><g fill="#00c2cb" fill-opacity="1"><g transform="translate(67.446739, 111.7131)"><g><path d="M 3.296875 -4.390625 L 4.21875 -4.390625 L 4.21875 0 L 3.328125 0 L 1.21875 -2.859375 L 1.21875 0 L 0.296875 0 L 0.296875 -4.390625 L 1.171875 -4.390625 L 3.296875 -1.5 Z M 3.296875 -4.390625 "/></g></g></g><g fill="#00c2cb" fill-opacity="1"><g transform="translate(72.543049, 111.7131)"><g><path d="M 1.890625 -4.390625 L 1.890625 -3.59375 L 1.5625 -3.59375 L 1.5625 -0.78125 L 1.890625 -0.78125 L 1.890625 0 L 0.296875 0 L 0.296875 -0.78125 L 0.625 -0.78125 L 0.625 -3.59375 L 0.296875 -3.59375 L 0.296875 -4.390625 Z M 1.890625 -4.390625 "/></g></g></g><g fill="#00c2cb" fill-opacity="1"><g transform="translate(75.292578, 111.7131)"><g><path d="M 2.359375 -4.453125 C 2.660156 -4.453125 2.941406 -4.390625 3.203125 -4.265625 C 3.460938 -4.148438 3.691406 -3.988281 3.890625 -3.78125 C 4.085938 -3.570312 4.242188 -3.332031 4.359375 -3.0625 C 4.472656 -2.789062 4.53125 -2.5 4.53125 -2.1875 C 4.53125 -1.882812 4.472656 -1.59375 4.359375 -1.3125 C 4.242188 -1.039062 4.085938 -0.800781 3.890625 -0.59375 C 3.691406 -0.382812 3.460938 -0.21875 3.203125 -0.09375 C 2.941406 0.0195312 2.660156 0.078125 2.359375 0.078125 C 2.066406 0.078125 1.785156 0.0195312 1.515625 -0.09375 C 1.253906 -0.21875 1.023438 -0.382812 0.828125 -0.59375 C 0.640625 -0.800781 0.488281 -1.039062 0.375 -1.3125 C 0.257812 -1.59375 0.203125 -1.882812 0.203125 -2.1875 C 0.203125 -2.5 0.257812 -2.789062 0.375 -3.0625 C 0.488281 -3.332031 0.640625 -3.570312 0.828125 -3.78125 C 1.023438 -3.988281 1.253906 -4.148438 1.515625 -4.265625 C 1.785156 -4.390625 2.066406 -4.453125 2.359375 -4.453125 Z M 2.359375 -0.859375 C 2.535156 -0.859375 2.695312 -0.890625 2.84375 -0.953125 C 2.988281 -1.023438 3.113281 -1.117188 3.21875 -1.234375 C 3.332031 -1.359375 3.421875 -1.5 3.484375 -1.65625 C 3.554688 -1.820312 3.59375 -2 3.59375 -2.1875 C 3.59375 -2.375 3.554688 -2.546875 3.484375 -2.703125 C 3.421875 -2.867188 3.332031 -3.015625 3.21875 -3.140625 C 3.113281 -3.265625 2.988281 -3.359375 2.84375 -3.421875 C 2.695312 -3.492188 2.535156 -3.53125 2.359375 -3.53125 C 2.191406 -3.53125 2.035156 -3.492188 1.890625 -3.421875 C 1.742188 -3.359375 1.613281 -3.265625 1.5 -3.140625 C 1.382812 -3.015625 1.296875 -2.867188 1.234375 -2.703125 C 1.171875 -2.546875 1.140625 -2.375 1.140625 -2.1875 C 1.140625 -2 1.171875 -1.820312 1.234375 -1.65625 C 1.296875 -1.5 1.382812 -1.359375 1.5 -1.234375 C 1.613281 -1.117188 1.742188 -1.023438 1.890625 -0.953125 C 2.035156 -0.890625 2.191406 -0.859375 2.359375 -0.859375 Z M 2.359375 -0.859375 "/></g></g></g><g fill="#00c2cb" fill-opacity="1"><g transform="translate(80.605611, 111.7131)"><g><path d="M 3.453125 -3.078125 C 3.453125 -2.941406 3.429688 -2.8125 3.390625 -2.6875 C 3.347656 -2.5625 3.289062 -2.441406 3.21875 -2.328125 C 3.15625 -2.222656 3.070312 -2.128906 2.96875 -2.046875 C 2.875 -1.972656 2.765625 -1.910156 2.640625 -1.859375 L 4.109375 0 L 3 0 L 1.65625 -1.765625 L 1.234375 -1.765625 L 1.234375 0 L 0.296875 0 L 0.296875 -4.390625 L 2.1875 -4.390625 C 2.351562 -4.390625 2.515625 -4.351562 2.671875 -4.28125 C 2.828125 -4.21875 2.960938 -4.125 3.078125 -4 C 3.191406 -3.882812 3.28125 -3.75 3.34375 -3.59375 C 3.414062 -3.4375 3.453125 -3.265625 3.453125 -3.078125 Z M 2.0625 -2.625 C 2.1875 -2.625 2.289062 -2.664062 2.375 -2.75 C 2.457031 -2.84375 2.5 -2.953125 2.5 -3.078125 C 2.5 -3.203125 2.457031 -3.304688 2.375 -3.390625 C 2.289062 -3.484375 2.1875 -3.53125 2.0625 -3.53125 L 1.234375 -3.53125 L 1.234375 -2.625 Z M 2.0625 -2.625 "/></g></g></g></svg>